<?xml version="1.0" encoding="UTF-8"?>
<svg width="98px" height="99px" viewBox="0 0 98 99" version="1.1" xmlns="http://www.w3.org/2000/svg" xmlns:xlink="http://www.w3.org/1999/xlink">
    <!-- Generator: sketchtool 41.2 (35397) - http://www.bohemiancoding.com/sketch -->
    <title>0EEA92C9-4DDC-411C-8C67-682FB2DD9F73</title>
    <desc>Created with sketchtool.</desc>
    <defs>
        <rect id="path-1" x="0" y="0" width="100" height="100"></rect>
    </defs>
    <g id="Comp" stroke="none" stroke-width="1" fill="none" fill-rule="evenodd">
        <g id="Omise-GO_Landing_Desktop" transform="translate(-462.000000, -2108.000000)">
            <g id="OmiseLogo" transform="translate(462.000000, 2108.000000)">
                <mask id="mask-2" fill="white">
                    <use xlink:href="#path-1"></use>
                </mask>
                <g id="Mask"></g>
                <g mask="url(#mask-2)" id="Layer_1">
                    <g>
                        <g id="Group">
                            <g id="Shape">
                                <path d="M83.616378,14.49 C64.5179528,-4.76 33.4743307,-4.76 14.3759055,14.49 C-4.72251969,33.74 -4.72251969,65.03 14.3759055,84.28 C33.4743307,103.53 64.5179528,103.53 83.616378,84.28 L83.616378,84.28 C102.714803,65.03 102.714803,33.74 83.616378,14.49 Z M75.9770079,50.47 L50.0725984,76.58 C49.4475591,77.21 48.4752756,77.21 47.8502362,76.58 L47.8502362,76.58 L21.9458268,50.47 C21.3207874,49.84 21.3207874,48.86 21.9458268,48.23 L21.9458268,48.23 L47.8502362,22.12 C48.4752756,21.49 49.4475591,21.49 50.0725984,22.12 L50.0725984,22.12 L75.9770079,48.23 C76.6020472,48.86 76.6020472,49.84 75.9770079,50.47 L75.9770079,50.47 L75.9770079,50.47 Z" fill="#2176FF"></path>
                                <path d="M97.9922835,49.28 C97.9922835,36.19 92.8530709,23.59 83.6858268,14.35 C75.9075591,6.51 63.3373228,6.44 55.5590551,14.28 L47.919685,21.91 C48.1974803,21.63 48.6141732,21.49 48.9614173,21.49 C49.3781102,21.49 49.7948031,21.7 50.0725984,21.98 L83.5469291,55.79 C91.3251969,63.63 91.3251969,76.3 83.5469291,84.14 C92.783622,74.9 97.9922835,62.37 97.9922835,49.28 Z" fill="#1A53F0"></path>
                                <path d="M14.3064567,84.07 C22.0847244,91.91 34.6549606,91.91 42.5026772,84.14 C42.5026772,84.14 45.627874,80.85 50.0725984,76.37 C49.5170079,77 48.4752756,77 47.8502362,76.44 L47.7807874,76.37 L22.0152756,50.4 C21.6680315,50.12 21.5291339,49.63 21.5291339,49.21 C21.5291339,48.79 21.6680315,48.37 21.9458268,48.09 L14.4453543,55.65 C6.66708661,63.49 6.5976378,76.16 14.3064567,84.07 L14.3064567,84.07 L14.3064567,84.07 Z" fill="#1A53F0"></path>
                            </g>
                        </g>
                    </g>
                </g>
            </g>
        </g>
    </g>
</svg>